HIERARCHY
ROOT RootJoint
{
    OFFSET   0.000000   0.000000   0.000000
    CHANNELS 6 Xposition Yposition Zposition Xrotation Yrotation Zrotation
    JOINT pelvis_lowerback
    {
        OFFSET   0.000000   0.093605   0.000000
        CHANNELS 3 Xrotation Yrotation Zrotation
        JOINT lowerback_torso
        {
            OFFSET   0.000000   0.100000   0.000000
            CHANNELS 3 Xrotation Yrotation Zrotation
            JOINT torso_head
            {
                OFFSET   0.000000   0.282350   0.000000
                CHANNELS 3 Xrotation Yrotation Zrotation
                End Site
                {
                    OFFSET   0.000000   0.192650   0.000000
                }
            }
            JOINT rTorso_Clavicle
            {
                OFFSET  -0.001000   0.157500   0.000000
                CHANNELS 3 Xrotation Yrotation Zrotation
                JOINT rShoulder
                {
                    OFFSET  -0.117647   0.000000   0.000000
                    CHANNELS 3 Xrotation Yrotation Zrotation
                    JOINT rElbow
                    {
                        OFFSET  -0.245000   0.000000   0.000000
                        CHANNELS 3 Xrotation Yrotation Zrotation
                        JOINT rWrist
                        {
                            OFFSET  -0.240000   0.000000   0.000000
                            CHANNELS 3 Xrotation Yrotation Zrotation
                            End Site
                            {
                                OFFSET  -0.116353  -0.002500   0.000000
                            }
                        }
                    }
                }
            }
            JOINT lTorso_Clavicle
            {
                OFFSET   0.001000   0.157500   0.000000
                CHANNELS 3 Xrotation Yrotation Zrotation
                JOINT lShoulder
                {
                    OFFSET   0.117647   0.000000   0.000000
                    CHANNELS 3 Xrotation Yrotation Zrotation
                    JOINT lElbow
                    {
                        OFFSET   0.245000   0.000000   0.000000
                        CHANNELS 3 Xrotation Yrotation Zrotation
                        JOINT lWrist
                        {
                            OFFSET   0.240000   0.000000   0.000000
                            CHANNELS 3 Xrotation Yrotation Zrotation
                            End Site
                            {
                                OFFSET   0.116353  -0.002500   0.000000
                            }
                        }
                    }
                }
            }
        }
    }
    JOINT rHip
    {
        OFFSET  -0.100000  -0.051395   0.000000
        CHANNELS 3 Xrotation Yrotation Zrotation
        JOINT rKnee
        {
            OFFSET   0.000000  -0.410000   0.000000
            CHANNELS 3 Xrotation Yrotation Zrotation
            JOINT rAnkle
            {
                OFFSET   0.000000  -0.390000   0.000000
                CHANNELS 3 Xrotation Yrotation Zrotation
                JOINT rToeJoint
                {
                    OFFSET   0.000000  -0.050000   0.130000
                    CHANNELS 3 Xrotation Yrotation Zrotation
                    End Site
                    {
                        OFFSET  -0.010000   0.002000   0.060000
                    }
                }
            }
        }
    }
    JOINT lHip
    {
        OFFSET   0.100000  -0.051395   0.000000
        CHANNELS 3 Xrotation Yrotation Zrotation
        JOINT lKnee
        {
            OFFSET   0.000000  -0.410000   0.000000
            CHANNELS 3 Xrotation Yrotation Zrotation
            JOINT lAnkle
            {
                OFFSET   0.000000  -0.390000   0.000000
                CHANNELS 3 Xrotation Yrotation Zrotation
                JOINT lToeJoint
                {
                    OFFSET   0.000000  -0.050000   0.130000
                    CHANNELS 3 Xrotation Yrotation Zrotation
                    End Site
                    {
                        OFFSET   0.010000   0.002000   0.060000
                    }
                }
            }
        }
    }
}
MOTION
Frames: 10
Frame Time:   0.008333
 -2.274025   0.910466   5.266870   0.554555 -15.798536  -0.887199   3.879248   0.702922  -3.942579   2.448551  -0.813540   3.052188   0.156277   1.048537   3.218990   1.606313   0.039896   9.900288   7.553158  16.335920  45.511844  -0.010167  23.182797   0.002373  10.236072   2.551313   8.334765  -0.990004  -1.947398  -5.962370   9.443181 -15.518593 -40.013613  -0.010623 -16.735159  -0.004410   9.191879  -5.440347  -6.110721 -17.457495   1.529417  -8.174573  85.065006  -0.006553  -0.000952   0.965682   2.623948   7.780183  -2.900190  -0.001645  -0.004444  -6.603346  -3.854169  -2.582022  19.483217  -0.001033  -0.001962 -13.258312  -1.327224   6.307195  -0.210039   0.000109  -0.000106
 -2.274235   0.910756   5.270151   0.452237 -15.563180  -1.021187   4.004772   0.580219  -3.815896   2.367586  -0.860309   3.100295   0.298491   1.011925   3.235352   1.497448   0.169509   9.916023   7.221877  16.384178  45.304979  -0.009889  23.735473   0.002576  10.203236   2.631127   8.196832  -1.048060  -2.048522  -5.910436   9.038623 -15.734411 -39.728997  -0.010739 -17.162150  -0.004314   9.220583  -5.385261  -5.917878 -18.495949   1.404347  -8.081426  85.605527  -0.005418  -0.000541   0.571452   2.269778   7.806591  -2.769137  -0.001344  -0.003757  -6.163201  -3.882906  -2.482245  19.237507  -0.000986  -0.002037 -13.294023  -1.553380   6.146623  -0.258876   0.000007  -0.000084
 -2.274424   0.911080   5.273371   0.342292 -15.329524  -1.160246   4.145246   0.456245  -3.684295   2.297540  -0.911655   3.152572   0.437059   0.977220   3.252973   1.382086   0.300783   9.921997   6.903327  16.435939  45.103093  -0.009510  24.254913   0.002653  10.169139   2.718890   8.033734  -1.118878  -2.160660  -5.861120   8.646336 -15.955061 -39.464923  -0.010651 -17.573108  -0.004099   9.243621  -5.389223  -5.719446 -19.536307   1.293987  -7.997753  86.024341  -0.004412  -0.000288   0.198296   1.937950   7.828931  -2.665185  -0.001084  -0.003137  -5.724299  -3.913941  -2.378786  18.998362  -0.000941  -0.002073 -13.303408  -1.772452   5.998004  -0.345474  -0.000128  -0.000066
 -2.274630   0.911404   5.276591   0.219997 -15.084873  -1.300795   4.290001   0.327947  -3.555000   2.239980  -0.970449   3.206275   0.569910   0.944772   3.270925   1.270416   0.426533   9.922377   6.603410  16.487160  44.911631  -0.009040  24.741144   0.002641  10.135881   2.809876   7.866116  -1.194919  -2.278939  -5.812714   8.272463 -16.172159 -39.217891  -0.010384 -17.961744  -0.003838   9.262882  -5.423900  -5.520520 -20.555753   1.196273  -7.925940  86.375776  -0.003516  -0.000110  -0.151895   1.627839   7.847927  -2.575599  -0.000857  -0.002600  -5.283419  -3.944695  -2.277290  18.779569  -0.000897  -0.002080 -13.302542  -1.978608   5.859623  -0.464921  -0.000278  -0.000071
 -2.274872   0.911719   5.279847   0.086009 -14.830917  -1.440881   4.431959   0.198786  -3.430904   2.192104  -1.034504   3.259426   0.695894   0.914466   3.288445   1.167340   0.543008   9.920822   6.324616  16.534924  44.732110  -0.008507  25.194620   0.002572  10.104418   2.896761   7.703579  -1.271331  -2.397342  -5.765975   7.919505 -16.381582 -38.987042  -0.009981 -18.327150  -0.003584   9.280178  -5.473068  -5.324303 -21.542810   1.111906  -7.864972  86.683001  -0.002734   0.000021  -0.479713   1.338062   7.864002  -2.497003  -0.000661  -0.002142  -4.840663  -3.981729  -2.177820  18.584803  -0.000845  -0.002041 -13.297324  -2.179676   5.730569  -0.613958  -0.000429  -0.000087
 -2.275159   0.912022   5.283155  -0.057063 -14.569315  -1.579497   4.566468   0.070958  -3.312734   2.151032  -1.101778   3.310994   0.814342   0.886155   3.305180   1.074801   0.648757   9.919013   6.067366  16.577917  44.564796  -0.007936  25.616624   0.002464  10.075187   2.975169   7.550436  -1.345116  -2.512128  -5.721840   7.588323 -16.581168 -38.772160  -0.009479 -18.669574  -0.003360   9.296312  -5.528549  -5.133777 -22.490803   1.039278  -7.813499  86.957368  -0.002063   0.000120  -0.786270   1.067339   7.877586  -2.427499  -0.000496  -0.001755  -4.397345  -4.023985  -2.079891  18.414789  -0.000785  -0.001963 -13.289780  -2.375382   5.609397  -0.792297  -0.000577  -0.000112
 -2.275496   0.912314   5.286524  -0.206096 -14.301964  -1.715848   4.690807  -0.053813  -3.200767   2.114414  -1.170489   3.360402   0.924989   0.859702   3.321022   0.993042   0.743695   9.917663   5.830896  16.615813  44.409338  -0.007351  26.008906   0.002330  10.048269   3.043411   7.408222  -1.414572  -2.621183  -5.680894   7.278842 -16.769877 -38.572833  -0.008912 -18.989782  -0.003170   9.311667  -5.585929  -4.951154 -23.396124   0.976694  -7.770131  87.205534  -0.001496   0.000194  -1.072791   0.814465   7.889055  -2.365733  -0.000360  -0.001432  -3.955329  -4.070298  -1.982888  18.268531  -0.000720  -0.001854 -13.280411  -2.565418   5.495613  -0.999343  -0.000719  -0.000147
 -2.275817   0.912550   5.290020  -0.341706 -14.030405  -1.898726   4.773791  -0.157221  -3.048517   2.097832  -1.213529   3.450500   1.047372   0.844131   3.340057   0.901988   0.809000   9.915436   5.626319  16.608114  44.233678  -0.006329  26.186703   0.002048   9.990102   3.213575   7.254460  -1.462301  -2.701748  -5.706168   6.991146 -17.066095 -38.376659  -0.008270 -19.307838  -0.002911   9.341148  -5.582149  -4.758367 -24.177830   0.967572  -7.676708  86.855316  -0.001707  -0.000026  -1.272135   0.557174   7.940429  -2.306888  -0.000225  -0.001135  -3.510115  -4.105004  -1.828825  18.125564  -0.000668  -0.001783 -13.348074  -2.794327   5.397237  -1.109656  -0.000693  -0.000135
 -2.276104   0.912645   5.293525  -0.467819 -13.766157  -2.054556   4.854483  -0.254996  -2.918599   2.083607  -1.257558   3.533898   1.160572   0.831722   3.362279   0.827593   0.862330   9.908194   5.445995  16.590316  44.064678  -0.005426  26.341599   0.001779   9.941506   3.312910   7.110412  -1.510174  -2.782203  -5.739208   6.717700 -17.352049 -38.203963  -0.007587 -19.610202  -0.002663   9.368033  -5.603841  -4.582976 -24.938218   0.996430  -7.622254  86.334163  -0.002245  -0.000235  -1.464421   0.314702   7.986242  -2.253117  -0.000110  -0.000888  -3.082395  -4.143388  -1.700694  18.001396  -0.000613  -0.001671 -13.456061  -3.018063   5.292096  -1.175441  -0.000629  -0.000115
 -2.276389   0.912623   5.297032  -0.594920 -13.506875  -2.187490   4.939654  -0.352798  -2.808145   2.077921  -1.305643   3.605247   1.266152   0.820556   3.383570   0.764783   0.906861   9.901132   5.283309  16.568916  43.906253  -0.004646  26.482486   0.001538   9.898839   3.380052   6.977123  -1.555968  -2.860780  -5.775750   6.461083 -17.622647 -38.047546  -0.006881 -19.893795  -0.002407   9.392651  -5.636397  -4.420201 -25.681825   1.044973  -7.596623  85.770226  -0.002786  -0.000400  -1.646712   0.087265   8.027877  -2.207448  -0.000027  -0.000688  -2.662486  -4.185573  -1.595073  17.897518  -0.000554  -0.001531 -13.596027  -3.236200   5.180779  -1.211291  -0.000545  -0.000094
